<svg xmlns="http://www.w3.org/2000/svg" xmlns:xlink="http://www.w3.org/1999/xlink" viewBox="0 0 390.26 390.16"><defs><style>.cls-1{fill:url(#linear-gradient);}.cls-2{fill:url(#linear-gradient-2);}.cls-3{fill:url(#linear-gradient-3);}.cls-4{fill:url(#linear-gradient-4);}.cls-5{fill:url(#linear-gradient-5);}.cls-6{fill:url(#linear-gradient-6);}.cls-7{fill:url(#linear-gradient-7);}.cls-8{fill:url(#linear-gradient-8);}.cls-9{fill:url(#linear-gradient-9);}.cls-10{fill:#333;}</style><linearGradient id="linear-gradient" x1="2002.86" y1="1226.84" x2="1768.16" y2="1548.55" gradientTransform="matrix(1, 0, 0, -1, -798.45, 2081.45)" gradientUnits="userSpaceOnUse"><stop offset="0" stop-color="#c3dcf2"/><stop offset="0.09" stop-color="#a9d2ee"/><stop offset="0.25" stop-color="#80c2e8"/><stop offset="0.74" stop-color="#6eabdb"/><stop offset="0.81" stop-color="#69a8da"/><stop offset="0.88" stop-color="#59a0d5"/><stop offset="0.97" stop-color="#4093ce"/><stop offset="1" stop-color="#358dcb"/><stop offset="1" stop-color="#599dd0"/></linearGradient><linearGradient id="linear-gradient-2" x1="1710.44" y1="1334.15" x2="2057.85" y2="1391.66" gradientTransform="matrix(1, 0, 0, -1, -798.45, 2081.45)" gradientUnits="userSpaceOnUse"><stop offset="0.01" stop-color="#a4d0ed"/><stop offset="0.07" stop-color="#a4d0ed"/><stop offset="0.12" stop-color="#9fc9ea"/><stop offset="0.3" stop-color="#92b5e3"/><stop offset="0.46" stop-color="#98b4e3"/><stop offset="0.58" stop-color="#99b4e3"/><stop offset="0.6" stop-color="#9cb3e3"/><stop offset="0.87" stop-color="#bda4df"/><stop offset="1" stop-color="#e399dd"/></linearGradient><linearGradient id="linear-gradient-3" x1="1721.51" y1="1371.58" x2="1963.29" y2="1241.21" gradientTransform="matrix(1, 0, 0, -1, -798.45, 2081.45)" gradientUnits="userSpaceOnUse"><stop offset="0" stop-color="#cce0f4"/><stop offset="0.1" stop-color="#c2dcf2"/><stop offset="0.27" stop-color="#a9d2ee"/><stop offset="0.35" stop-color="#9accec"/><stop offset="0.53" stop-color="#a0ceed"/><stop offset="0.64" stop-color="#8bc6e9"/><stop offset="0.84" stop-color="#71afdd"/><stop offset="0.89" stop-color="#6dacdb"/><stop offset="0.94" stop-color="#5fa2d4"/><stop offset="0.97" stop-color="#589cd0"/></linearGradient><linearGradient id="linear-gradient-4" x1="1918.3" y1="1371.09" x2="1918.41" y2="1371.06" gradientTransform="matrix(1, -0.03, -0.03, -1, -753.83, 2159.11)" gradientUnits="userSpaceOnUse"><stop offset="0" stop-color="#fff"/><stop offset="1" stop-color="#49c7db"/></linearGradient><linearGradient id="linear-gradient-5" x1="1697.52" y1="1425.21" x2="1900.3" y2="1373.15" gradientTransform="matrix(1, -0.03, -0.03, -1, -753.83, 2159.11)" gradientUnits="userSpaceOnUse"><stop offset="0" stop-color="#fff"/><stop offset="1" stop-color="#232020"/></linearGradient><linearGradient id="linear-gradient-6" x1="1938.02" y1="1139.72" x2="1874.93" y2="1326.86" gradientTransform="matrix(1, 0, 0, -1, -798.45, 2081.45)" xlink:href="#linear-gradient-5"/><linearGradient id="linear-gradient-7" x1="1783.72" y1="1260.84" x2="2113.59" y2="1520.38" xlink:href="#linear-gradient-5"/><linearGradient id="linear-gradient-8" x1="1934.89" y1="1410.37" x2="1961.12" y2="1403.63" gradientTransform="matrix(1, 0, 0, -1, -798.45, 2081.45)" gradientUnits="userSpaceOnUse"><stop offset="0.54" stop-color="#3b3838"/><stop offset="1" stop-color="#232020"/></linearGradient><linearGradient id="linear-gradient-9" x1="2030.89" y1="1310.18" x2="1685.56" y2="1286.83" xlink:href="#linear-gradient-5"/></defs><title>tswolf</title><g id="wolf"><path class="cls-1" d="M1284.92,693a193.59,193.59,0,0,1-15.8,82.3l-.2.4a192,192,0,0,1-24.4,41.2,199.56,199.56,0,0,1-25.9,27.7h0a194.57,194.57,0,0,1-40.9,27.6,191.55,191.55,0,0,1-43.3,15.6,189,189,0,0,1-19.7,3.5h-.1c-6.3.8-12.6,1.3-19,1.5a194.91,194.91,0,0,1-41.1-3.2,197.58,197.58,0,0,1-43.1-13.4c-2.8-1.2-5.4-2.5-8.1-3.8a195.79,195.79,0,0,1-51.3-37.2c-3.3-3.3-6.5-6.8-9.6-10.4a191.69,191.69,0,0,1-39.6-73.8c-.5-1.8-1-3.5-1.4-5.3a184.86,184.86,0,0,1-5-29.6c-.2-1.8-.3-3.6-.4-5.5q-.3-3.6-.3-7.2c-10.52-108.17,81.7-196.9,189.2-199.8h.1C1192.52,500.65,1282,585.45,1284.92,693Z" transform="translate(-894.74 -503.48)"/><path class="cls-2" d="M1229.64,747.69a181.16,181.16,0,0,1-20.6,75.4l-.2.4a182.28,182.28,0,0,1-25.6,36.6c-2.1,2.3-4.2,4.5-6.4,6.7a192.22,192.22,0,0,1-34.2,13.3c-3,.9-6,1.6-9.1,2.3a189,189,0,0,1-19.7,3.5h-.2c-6.3.8-12.6,1.3-19,1.5a194.91,194.91,0,0,1-41.1-3.2,197.58,197.58,0,0,1-43.1-13.4c-2.8-1.2-5.4-2.5-8.1-3.8a195.79,195.79,0,0,1-51.3-37.2c-3.3-3.3-6.5-6.8-9.6-10.4a196.48,196.48,0,0,1-39.5-74c-.5-1.8-1-3.5-1.4-5.3-.4-1.6-.8-3.2-1.2-4.9a204.75,204.75,0,0,1-3.9-24.7c-.2-1.8-.3-3.6-.4-5.5q-.3-3.6-.3-7.2c.4-24.84.28-30.92,4.08-47.47,15.43-36.65,61.64-92,158.47-97.87h.27C1178.53,552.23,1234.64,647.62,1229.64,747.69Z" transform="translate(-894.74 -503.48)"/><path class="cls-3" d="M1166.72,808.15a143.37,143.37,0,0,1-13.2,60.7l-.2.3a131.9,131.9,0,0,1-9,16.5c-3,.9-6,1.6-9.1,2.3a189,189,0,0,1-19.7,3.5h-.1c-6.3.8-12.6,1.3-19,1.5a194.91,194.91,0,0,1-41.1-3.2,197.58,197.58,0,0,1-43.1-13.4c-2.8-1.2-5.4-2.5-8.1-3.8a195.79,195.79,0,0,1-51.3-37.2c-3.3-3.3-6.5-6.8-9.6-10.4a196.26,196.26,0,0,1-39.4-74c-.5-1.8-1-3.5-1.4-5.3-.4-1.6-.8-3.2-1.2-4.9a161.34,161.34,0,0,1,4.2-16.6,144.18,144.18,0,0,1,261.3,84Z" transform="translate(-894.74 -503.48)"/><path class="cls-4" d="M1125.52,731.05V731S1125.72,731,1125.52,731.05Z" transform="translate(-894.74 -503.48)"/><path class="cls-5" d="M1126.31,646.66l-29.2,49.7-124.5,158.4a195,195,0,0,1-55.3-64.8,189,189,0,0,1-15.3-38.3c-.5-1.8-1-3.5-1.4-5.3a184.86,184.86,0,0,1-5-29.6c44.2-82.5,169.2-93.4,169.2-93.4,2.3-14.2,19.1-17.4,32.5-24.8s21.5-22.2,21.5-22.2Z" transform="translate(-894.74 -503.48)"/><path class="cls-6" d="M1217.81,845.26h0a194.22,194.22,0,0,1-104,46.8h-.1c-6.3.8-12.6,1.3-19,1.5a191.4,191.4,0,0,1-84.3-16.5c.3-3.1.6-6.7,1-10.7,6.2-72-55.7-15.9,2.6-68.6s1.6-39.2,58.3-52.7c44.3-10.5,51-12.8,51.9-13.2l2.1,35.3s-32.6,42.7-6.2,73.5S1217.81,845.26,1217.81,845.26Z" transform="translate(-894.74 -503.48)"/><path class="cls-7" d="M1247.81,728.06s-3.1,17.4-17,29a43.19,43.19,0,0,1-21.5,9.5c-19.7,3-40,2.3-59.8,1.6-25.1-.9-48.6-4.8-72.5,5.3a66,66,0,0,0-34.1,33.7c-7.6,17.1-4.6,37.2,5.6,52.8,11.5,17.7,30,26.4,50.5,28.9a143.89,143.89,0,0,0,34.7-.3l-3.3.7c-5.4,1.2-10.9,2.1-16.5,2.8h-.1c-6.3.8-12.6,1.3-19,1.5a191.4,191.4,0,0,1-84.3-16.5c-2.8-1.2-5.4-2.5-8.1-3.8a195.79,195.79,0,0,1-51.3-37.2c-1.3-35.1,4.6-76,29.9-109.7,44.3-58.9,122.8-75.1,122.8-75.1s-.4-6.4-18.5-11.5c0,0,38-1.6,33.5-63.3,0,0,16.8,47.7,15.7,60.9,0,0,32.3,22.5,35.2,30s5.1,23.5,14.2,29.2S1247.81,728.06,1247.81,728.06Z" transform="translate(-894.74 -503.48)"/><path class="cls-8" d="M1137.34,667.68s8.55-2.16,14.05,1.44,9.82,14.64,9.82,14.64-9.25-1.9-12.76-4C1141.87,675.72,1137.34,667.68,1137.34,667.68Z" transform="translate(-894.74 -503.48)"/><path class="cls-9" d="M1230.71,757.06a43.19,43.19,0,0,1-21.5,9.5c-19.7,3-40,2.3-59.8,1.6-25.1-.9-48.6-4.8-72.5,5.3a66,66,0,0,0-34.1,33.7c-7.6,17.1-4.6,37.2,5.6,52.8,11.5,17.7,30,26.4,50.5,28.9a143.89,143.89,0,0,0,34.7-.3l-3.3.7c-92.1,19.3-130.8-52.6-113.9-117.3,11.8-45.3,56.8-45.2,56.8-45.2-3.6-4.8-30.5-6-30.5-6,58-27.8,111.8,19.8,142.4,30S1230.71,757.06,1230.71,757.06Z" transform="translate(-894.74 -503.48)"/><path class="cls-10" d="M1247.91,728.06s-4.84-2.22-11.74-5.52l.54,5.92a16.16,16.16,0,0,0,3.1,8.2l3.32,4.52A50.29,50.29,0,0,0,1247.91,728.06Z" transform="translate(-894.74 -503.48)"/></g></svg>