<?xml version="1.0" standalone="no"?>
<!DOCTYPE svg PUBLIC "-//W3C//DTD SVG 20010904//EN"
 "http://www.w3.org/TR/2001/REC-SVG-20010904/DTD/svg10.dtd">
<svg version="1.0" xmlns="http://www.w3.org/2000/svg"
 width="200.000000pt" height="200.000000pt" viewBox="0 0 200.000000 200.000000"
 preserveAspectRatio="xMidYMid meet">
<metadata>
Created by potrace 1.11, written by Peter Selinger 2001-2013
</metadata>
<g transform="translate(0.000000,200.000000) scale(0.100000,-0.100000)"
fill="#000000" stroke="none">
<path d="M345 1843 c3 -32 14 -161 25 -288 l18 -230 -40 -228 c-22 -126 -37
-234 -35 -241 3 -7 80 -59 171 -116 l165 -103 61 -191 c33 -105 64 -198 69
-206 4 -8 43 -43 87 -77 75 -59 82 -62 134 -63 53 0 58 2 139 67 l84 68 54
165 c29 91 57 181 63 200 9 32 26 46 176 140 91 57 168 109 171 116 3 7 -13
116 -35 241 l-40 228 18 220 c10 121 21 251 24 288 4 42 3 67 -3 65 -9 -3 -53
-37 -285 -220 l-111 -88 -256 0 -255 0 -40 33 c-21 18 -51 42 -65 52 -15 11
-85 66 -157 123 -71 56 -133 102 -136 102 -4 0 -4 -26 -1 -57z m201 -120 c96
-75 174 -139 174 -143 0 -14 -311 -240 -314 -228 -6 18 -42 508 -38 508 2 0
82 -61 178 -137z m1090 115 c-3 -13 -12 -124 -21 -248 -9 -124 -18 -231 -21
-237 -3 -12 -305 207 -312 225 -1 4 55 52 124 107 70 55 148 117 173 137 54
44 63 46 57 16z m-400 -310 c-4 -24 -21 -125 -38 -225 l-31 -181 -83 -41 -84
-41 -83 40 -84 40 -37 218 c-20 119 -36 220 -36 225 0 4 109 7 241 7 l242 0
-7 -42z m-461 -181 c20 -115 35 -211 32 -213 -2 -2 -66 14 -143 35 -135 39
-139 41 -193 95 -30 31 -53 57 -51 59 25 22 313 237 315 235 2 -2 20 -97 40
-211z m650 94 c76 -58 144 -109 150 -113 6 -5 -12 -30 -46 -63 -54 -55 -58
-57 -193 -96 -76 -23 -140 -39 -143 -36 -3 3 7 70 21 149 14 79 31 173 37 210
7 46 15 66 23 61 6 -4 74 -54 151 -112z m-958 -203 c38 -40 62 -78 93 -151 24
-53 41 -99 39 -101 -11 -9 -260 -109 -263 -105 -2 2 11 92 30 199 18 107 34
198 34 203 0 16 18 4 67 -45z m1133 45 c0 -5 16 -95 35 -202 19 -107 32 -197
30 -199 -3 -3 -22 2 -42 11 -21 9 -78 33 -128 53 -49 21 -91 38 -93 40 -2 1
15 46 38 100 32 76 54 111 93 152 49 49 67 61 67 45z m-784 -227 c6 -6 19 -33
27 -59 15 -44 15 -51 1 -72 l-15 -23 -102 43 -102 43 -37 84 c-21 45 -38 88
-38 94 0 12 246 -90 266 -110z m634 108 c0 -3 -16 -43 -36 -88 -26 -62 -42
-87 -62 -96 -15 -7 -62 -27 -104 -46 l-77 -33 -15 24 c-14 21 -14 28 1 72 8
26 20 53 25 58 10 11 236 112 256 114 6 0 12 -2 12 -5z m-670 -48 c37 -12 199
-82 207 -90 8 -8 -80 -653 -92 -675 -13 -23 -14 10 -15 291 0 298 -1 321 -21
374 -20 53 -25 57 -83 84 -67 31 -66 37 4 16z m444 -16 c-57 -27 -62 -32 -82
-85 -21 -54 -22 -73 -22 -373 0 -405 -12 -401 -64 23 -20 165 -39 314 -42 330
-5 30 -4 31 88 72 104 46 146 61 168 61 8 0 -12 -13 -46 -28z m-516 -167 c48
-20 91 -40 96 -44 8 -7 -69 -130 -127 -203 l-24 -29 -157 98 c-128 80 -155
101 -140 107 125 54 251 107 257 107 5 1 48 -15 95 -36z m814 -19 c73 -31 134
-57 136 -59 6 -5 -308 -196 -316 -191 -5 3 -28 33 -52 68 -23 35 -56 82 -73
105 -17 24 -27 46 -23 50 7 8 175 81 188 82 3 1 66 -24 140 -55z m-488 -236
c16 -128 31 -248 34 -266 l5 -32 -73 0 -73 0 5 32 c3 18 18 138 34 266 16 127
31 232 34 232 3 0 18 -105 34 -232z m150 -106 c10 -167 15 -306 13 -308 -2 -3
-16 1 -31 7 l-26 12 0 316 c0 266 2 312 13 296 10 -14 19 -112 31 -323z m-324
20 l0 -309 -26 -12 c-15 -6 -28 -10 -31 -8 -2 3 4 141 13 308 15 265 23 329
40 329 2 0 4 -139 4 -308z m416 -125 c-30 -94 -55 -167 -56 -162 -13 185 -30
461 -30 494 l0 44 70 -102 71 -101 -55 -173z m-476 131 c-18 -326 -16 -322
-78 -124 l-53 166 67 95 c37 52 69 93 72 91 2 -3 -1 -105 -8 -228z m258 -245
c-10 -23 -54 -93 -58 -93 -3 0 -18 23 -33 50 l-28 50 61 0 c34 0 60 -3 58 -7z
m-106 -58 c24 -39 25 -45 10 -45 -14 0 -33 9 -70 35 -5 4 21 55 27 55 3 0 18
-20 33 -45z m144 28 c20 -27 17 -37 -15 -56 -53 -31 -64 -22 -33 28 15 25 29
45 31 45 2 0 10 -8 17 -17z m-186 -73 c14 -11 37 -20 53 -20 43 0 35 -32 -13
-53 -22 -9 -43 -17 -48 -17 -4 0 -27 18 -51 39 l-45 38 30 16 c37 21 44 21 74
-3z m250 5 c17 -9 30 -19 30 -23 0 -4 -17 -18 -37 -32 -20 -14 -41 -29 -47
-33 -17 -13 -96 24 -96 45 0 13 8 18 28 18 15 0 38 9 52 20 30 24 33 24 70 5z
m-127 -91 c43 -22 44 -24 27 -34 -19 -12 -101 -12 -120 0 -17 10 -16 12 25 33
37 20 30 20 68 1z"/>
</g>
</svg>
