<?xml version="1.0" standalone="no"?>
<!DOCTYPE svg PUBLIC "-//W3C//DTD SVG 20010904//EN"
 "http://www.w3.org/TR/2001/REC-SVG-20010904/DTD/svg10.dtd">
<svg version="1.0" xmlns="http://www.w3.org/2000/svg"
 width="200.000000pt" height="200.000000pt" viewBox="0 0 200.000000 200.000000"
 preserveAspectRatio="xMidYMid meet">
<metadata>
Created by potrace 1.11, written by Peter Selinger 2001-2013
</metadata>
<g transform="translate(0.000000,200.000000) scale(0.100000,-0.100000)"
fill="#000000" stroke="none">
<path d="M343 1849 c4 -30 9 -94 12 -144 4 -49 8 -99 10 -110 1 -11 6 -69 10
-130 4 -60 9 -117 10 -126 2 -8 -1 -37 -6 -65 -5 -27 -12 -64 -15 -83 -3 -18
-8 -43 -10 -55 -2 -11 -9 -48 -14 -81 -5 -33 -12 -71 -15 -85 -2 -13 -7 -42
-11 -64 -3 -22 -7 -43 -10 -47 -2 -4 75 -55 170 -115 l175 -108 22 -71 c13
-38 41 -130 64 -202 l42 -133 83 -65 c79 -62 86 -65 138 -65 51 0 60 4 138 62
45 34 87 73 93 87 5 14 35 107 67 206 l56 181 161 99 c166 103 190 121 183
134 -3 4 -19 88 -35 187 -17 98 -34 190 -37 204 -6 26 -6 138 1 200 2 19 6 73
10 120 3 47 7 103 10 125 13 122 16 195 9 195 -5 0 -98 -70 -206 -155 l-197
-155 -251 0 -252 0 -189 150 c-104 83 -197 154 -205 157 -14 5 -15 -1 -11 -48z
m241 -157 c72 -57 132 -106 133 -110 3 -8 -292 -232 -305 -232 -4 0 -8 10 -8
23 -1 23 -13 182 -20 252 -2 22 -6 85 -10 140 l-7 99 43 -34 c23 -19 102 -81
174 -138z m1041 56 c-4 -62 -9 -126 -10 -143 -14 -166 -18 -223 -17 -237 0
-10 -4 -18 -9 -18 -10 0 -302 218 -306 229 -1 3 41 40 94 81 53 41 131 103
172 137 42 34 78 63 80 63 2 0 0 -51 -4 -112z m-385 -185 c0 -13 -71 -418 -75
-431 -3 -7 -42 -30 -87 -51 l-81 -38 -79 39 c-43 21 -81 44 -83 50 -4 12 -75
419 -75 432 0 3 108 6 240 6 132 0 240 -3 240 -7z m-495 -53 c3 -25 8 -52 10
-60 2 -8 7 -31 10 -50 3 -19 15 -86 26 -149 11 -62 19 -115 17 -116 -2 -2 -66
14 -143 36 -135 38 -141 41 -192 91 -51 50 -52 53 -36 70 20 19 297 227 300
225 1 -1 4 -22 8 -47z m685 -75 c80 -60 147 -110 150 -112 2 -2 -21 -28 -51
-58 -53 -54 -57 -56 -193 -95 -77 -22 -141 -38 -143 -36 -3 2 25 169 41 251 2
11 9 55 16 98 9 53 16 75 24 69 6 -5 76 -57 156 -117z m-967 -193 c34 -35 61
-77 92 -147 25 -55 42 -102 37 -107 -7 -7 -246 -108 -256 -108 -5 0 -3 12 9
70 3 14 8 42 11 64 3 21 8 48 10 60 2 11 12 65 21 119 9 53 19 97 22 97 4 0
28 -22 54 -48z m1138 31 c0 -10 2 -27 5 -38 15 -74 61 -351 59 -353 -2 -2 -61
21 -132 50 -102 43 -127 58 -125 72 9 53 87 195 130 238 52 52 62 57 63 31z
m-907 -161 l129 -57 18 -53 c15 -43 16 -57 6 -73 -6 -10 -16 -19 -20 -19 -5 0
-52 18 -106 41 l-98 40 -34 81 c-19 45 -35 85 -37 90 -6 15 12 8 142 -50z
m754 50 c-1 -4 -18 -44 -36 -89 l-34 -81 -98 -41 c-54 -23 -102 -41 -107 -41
-4 0 -14 9 -21 20 -10 16 -8 29 9 75 11 30 21 55 22 55 1 0 58 25 127 54 129
56 144 62 138 48z m-711 -38 c-3 -3 -12 -4 -19 -1 -8 3 -5 6 6 6 11 1 17 -2
13 -5z m148 -51 c88 -40 107 -52 101 -62 -2 -3 -7 -37 -10 -76 -3 -38 -8 -81
-10 -95 -2 -14 -7 -52 -11 -85 -4 -33 -8 -73 -11 -90 -13 -104 -34 -271 -34
-280 0 -6 -6 -19 -13 -28 -10 -14 -12 39 -12 285 0 292 -1 305 -23 369 -22 61
-27 68 -70 87 -36 17 -40 21 -17 16 17 -3 66 -21 110 -41z m321 19 c-43 -24
-52 -34 -68 -82 -17 -49 -19 -89 -21 -363 -1 -238 -4 -305 -13 -292 -10 14
-23 92 -40 250 -3 28 -7 61 -9 74 -2 14 -7 54 -11 90 -3 36 -7 68 -9 71 -2 4
-14 115 -17 160 -2 23 8 33 45 49 23 10 62 27 87 38 93 42 127 45 56 5z m-495
-162 c51 -22 94 -42 97 -44 6 -6 -150 -227 -158 -224 -6 3 -291 178 -299 185
-2 2 -2 6 1 9 5 4 256 113 265 114 1 0 43 -18 94 -40z m826 -24 l123 -52 -152
-94 c-83 -52 -154 -96 -158 -98 -8 -3 -163 218 -157 224 17 17 186 81 202 77
11 -3 75 -29 142 -57z m-677 -311 l0 -304 -31 -16 -30 -16 6 93 c3 51 8 122
10 158 2 36 7 115 10 175 9 166 16 215 31 215 2 0 4 -137 4 -305z m154 240 c7
-70 44 -375 51 -422 l5 -33 -70 0 -70 0 5 33 c3 17 12 90 20 162 9 72 18 141
20 155 2 14 7 54 10 90 11 101 19 106 29 15z m152 23 c1 -13 5 -86 9 -163 3
-77 8 -158 10 -180 9 -101 15 -255 10 -255 -3 0 -17 7 -30 16 l-25 16 0 306
c0 236 3 303 12 294 6 -6 13 -22 14 -34z m-360 -120 c-3 -51 -9 -142 -12 -203
-14 -230 -14 -234 -19 -220 -2 6 -26 81 -54 167 l-51 158 67 95 c37 52 69 95
71 95 2 0 1 -42 -2 -92z m463 -10 l60 -88 -51 -165 c-29 -90 -53 -163 -54
-162 -2 2 -10 110 -19 252 -16 248 -16 270 -7 260 5 -5 37 -49 71 -97z m-233
-411 c-13 -23 -28 -43 -33 -44 -11 -4 -65 72 -57 80 3 2 30 5 60 5 l55 0 -25
-41z m-86 -22 c34 -49 23 -60 -28 -28 -15 9 -28 18 -30 19 -3 2 20 54 24 54 2
0 17 -20 34 -45z m132 -22 c-15 -13 -35 -23 -45 -23 -15 0 -13 7 14 46 l32 47
13 -24 c12 -22 11 -26 -14 -46z m-174 -23 c18 -11 44 -21 57 -22 37 -3 30 -25
-15 -48 -44 -22 -45 -22 -103 23 l-38 30 28 18 c34 23 31 23 71 -1z m255 2
l27 -19 -37 -29 c-58 -46 -59 -46 -103 -24 -42 22 -49 42 -14 45 10 1 35 11
54 23 42 26 38 26 73 4z m-130 -88 c43 -22 44 -24 27 -34 -22 -14 -104 -12
-118 2 -10 10 -5 16 20 30 41 21 33 21 71 2z"/>
</g>
</svg>
